<svg width="25" height="25" viewBox="0 0 25 25" fill="none" xmlns="http://www.w3.org/2000/svg">
<path d="M15.3569 1.12785C15.5641 1.12785 15.7628 1.21016 15.9093 1.35668L23.6433 9.09066C23.9484 9.39575 23.9484 9.89041 23.6433 10.1955C22.8927 10.9461 21.9683 11.1149 21.2955 11.1149C21.0183 11.1149 20.7713 11.0867 20.5756 11.0535L15.6794 15.9497C15.6902 15.9932 15.7013 16.0394 15.7124 16.0879C15.7966 16.4528 15.8912 16.9616 15.9293 17.5323C16.0024 18.6299 15.8797 20.1688 14.8045 21.2441C14.4994 21.5492 14.0047 21.5492 13.6996 21.2441L9.28019 16.8246L4.30835 21.7965C4.00326 22.1016 2.40374 23.2064 2.09864 22.9013C1.79355 22.5962 2.8984 20.9967 3.2035 20.6916L8.17534 15.7198L3.75592 11.3004C3.45083 10.9953 3.45083 10.5006 3.75592 10.1955C4.83119 9.12025 6.37003 8.99755 7.46772 9.07072C8.03833 9.10876 8.54719 9.20333 8.91207 9.28753C8.96059 9.29873 9.00673 9.30978 9.05031 9.32054L13.9465 4.42439C13.9133 4.22871 13.8851 3.98166 13.8851 3.70449C13.8851 3.03164 14.0539 2.10729 14.8045 1.35668C14.951 1.21016 15.1497 1.12785 15.3569 1.12785Z" fill="black" fill-opacity="0.54"/>
</svg>
