<svg width="25" height="29" viewBox="0 0 25 29" fill="none" xmlns="http://www.w3.org/2000/svg">
<rect width="25" height="29" fill="white"/>
<path d="M3.57143 0C1.60156 0 0 1.85781 0 4.14286V24.8571C0 27.1422 1.60156 29 3.57143 29H21.4286C23.3984 29 25 27.1422 25 24.8571V4.14286C25 1.85781 23.3984 0 21.4286 0H3.57143ZM10.7143 14.5H13.3929C14.3806 14.5 15.1786 13.5743 15.1786 12.4286C15.1786 11.2828 14.3806 10.3571 13.3929 10.3571H10.7143V14.5ZM13.3929 18.6429H10.7143V20.7143C10.7143 21.86 9.9163 22.7857 8.92857 22.7857C7.94085 22.7857 7.14286 21.86 7.14286 20.7143V16.5714V8.80357C7.14286 7.37299 8.14174 6.21429 9.375 6.21429H13.3929C16.3504 6.21429 18.75 8.99777 18.75 12.4286C18.75 15.8594 16.3504 18.6429 13.3929 18.6429Z" fill="#4395F6"/>
</svg>
