<svg width="30" height="30" viewBox="0 0 30 30" fill="none" xmlns="http://www.w3.org/2000/svg">
<path fill-rule="evenodd" clip-rule="evenodd" d="M5.62497 15C5.62497 9.82233 9.8223 5.625 15 5.625C20.1776 5.625 24.375 9.82233 24.375 15C24.375 20.1777 20.1776 24.375 15 24.375C13.6023 24.375 12.2785 24.0698 11.0894 23.5232C10.6189 23.3069 10.0622 23.513 9.84599 23.9835C9.62975 24.4539 9.83582 25.0106 10.3063 25.2268C11.736 25.884 13.3265 26.25 15 26.25C21.2132 26.25 26.25 21.2132 26.25 15C26.25 8.7868 21.2132 3.75 15 3.75C8.78677 3.75 3.74997 8.7868 3.74997 15H5.62497Z" fill="#0875F5"/>
<path d="M8.37417 15L1.00077 15C0.60335 15 0.386245 15.4635 0.64067 15.7688L4.32737 20.1929C4.51477 20.4178 4.86017 20.4178 5.04758 20.1929L8.73428 15.7688C8.9887 15.4635 8.7716 15 8.37417 15Z" fill="#0875F5"/>
</svg>
