<svg width="18" height="16" viewBox="0 0 18 16" fill="none" xmlns="http://www.w3.org/2000/svg">
<path d="M5.81484 2.25H12.1852C12.6633 2.25 13.0887 2.55234 13.2469 3.00234L14.1645 5.625H3.83555L4.75312 3.00234C4.91133 2.55234 5.33672 2.25 5.81484 2.25ZM2.62969 2.26055L1.39219 5.79375C0.576562 6.13125 0 6.93633 0 7.875V10.6875C0 11.5207 0.453516 12.2484 1.125 12.6352V14.625C1.125 15.2473 1.62773 15.75 2.25 15.75H3.375C3.99727 15.75 4.5 15.2473 4.5 14.625V12.9375H13.5V14.625C13.5 15.2473 14.0027 15.75 14.625 15.75H15.75C16.3723 15.75 16.875 15.2473 16.875 14.625V12.6352C17.5465 12.2449 18 11.5207 18 10.6875V7.875C18 6.93633 17.4234 6.13125 16.6078 5.79375L15.3703 2.26055C14.8957 0.907031 13.6195 0 12.1852 0H5.81484C4.38047 0 3.1043 0.907031 2.62969 2.26055ZM7.3125 8.4375H10.6875C10.9969 8.4375 11.25 8.69063 11.25 9V10.125C11.25 10.4344 10.9969 10.6875 10.6875 10.6875H7.3125C7.00313 10.6875 6.75 10.4344 6.75 10.125V9C6.75 8.69063 7.00313 8.4375 7.3125 8.4375ZM1.6875 8.71875C1.6875 8.25117 2.06367 7.875 2.53125 7.875H3.65625C4.12383 7.875 4.5 8.25117 4.5 8.71875C4.5 9.18633 4.12383 9.5625 3.65625 9.5625H2.53125C2.06367 9.5625 1.6875 9.18633 1.6875 8.71875ZM14.3438 7.875H15.4688C15.9363 7.875 16.3125 8.25117 16.3125 8.71875C16.3125 9.18633 15.9363 9.5625 15.4688 9.5625H14.3438C13.8762 9.5625 13.5 9.18633 13.5 8.71875C13.5 8.25117 13.8762 7.875 14.3438 7.875Z" fill="white"/>
</svg>
