<svg width="16" height="16" viewBox="0 0 16 16" fill="none" xmlns="http://www.w3.org/2000/svg">
<path d="M5.52406 15.5549C4.93046 16.1484 3.96548 16.1484 3.36871 15.5549L0.445194 12.6288C-0.148398 12.0353 -0.148398 11.0705 0.445194 10.4739L2.05456 8.86482L3.57822 10.3882C3.77502 10.5849 4.0988 10.5849 4.29561 10.3882C4.49241 10.1914 4.49241 9.8677 4.29561 9.67093L2.77195 8.14758L4.0861 6.83368L5.60976 8.35704C5.80657 8.5538 6.13034 8.5538 6.32715 8.35704C6.52396 8.16027 6.52396 7.83656 6.32715 7.63979L4.80349 6.11643L6.11765 4.80254L7.64131 6.32589C7.83811 6.52266 8.16189 6.52266 8.3587 6.32589C8.5555 6.12913 8.5555 5.80541 8.3587 5.60865L6.83504 4.08529L8.14919 2.7714L9.67285 4.29475C9.86966 4.49152 10.1934 4.49152 10.3902 4.29475C10.587 4.09799 10.587 3.77427 10.3902 3.57751L8.86658 2.05415L10.4759 0.445106C11.0695 -0.148369 12.0345 -0.148369 12.6313 0.445106L15.5548 3.36805C16.1484 3.96152 16.1484 4.92631 15.5548 5.52296L5.52406 15.5549Z" fill="white"/>
</svg>
