<svg width="16" height="17" viewBox="0 0 16 17" fill="none" xmlns="http://www.w3.org/2000/svg">
<path d="M7.11111 -1H5.03333C4.28056 -1 3.60833 -0.312946 3.35833 0.711607L0.0861111 14.075C0.0305556 14.308 0 14.5571 0 14.8062C0 16.0156 0.680556 17 1.51667 17H7.11111V14.4286C7.11111 13.7174 7.50833 13.1429 8 13.1429C8.49167 13.1429 8.88889 13.7174 8.88889 14.4286V17H14.4833C15.3222 17 16 16.0156 16 14.8062C16 14.5571 15.9694 14.308 15.9139 14.075L12.6417 0.711607C12.3889 -0.312946 11.7194 -1 10.9667 -1H8.88889V1.57143C8.88889 2.28259 8.49167 2.85714 8 2.85714C7.50833 2.85714 7.11111 2.28259 7.11111 1.57143V-1ZM8.88889 6.71429V9.28571C8.88889 9.99687 8.49167 10.5714 8 10.5714C7.50833 10.5714 7.11111 9.99687 7.11111 9.28571V6.71429C7.11111 6.00312 7.50833 5.42857 8 5.42857C8.49167 5.42857 8.88889 6.00312 8.88889 6.71429Z" fill="white"/>
</svg>
